<?xml version="1.0" standalone="no"?>
<!DOCTYPE svg PUBLIC "-//W3C//DTD SVG 20010904//EN" "http://www.w3.org/TR/2001/REC-SVG-20010904/DTD/svg10.dtd">
<!-- Created using Krita: https://krita.org -->
<svg xmlns="http://www.w3.org/2000/svg" 
    xmlns:xlink="http://www.w3.org/1999/xlink"
    xmlns:krita="http://krita.org/namespaces/svg/krita"
    xmlns:sodipodi="http://sodipodi.sourceforge.net/DTD/sodipodi-0.dtd"
    width="88.704pt"
    height="34.992pt"
    viewBox="0 0 88.704 34.992">
<defs/>
<g id="group0" transform="matrix(0.072 0 0 0.072 -28.152 -54.576)" fill="none">
  <path id="shape0" transform="translate(1099.61, 1189.36462549)" fill="#000000" stroke-opacity="0" stroke="#000000" stroke-width="0" stroke-linecap="square" stroke-linejoin="bevel" d="M27.34 45.0154C27.34 35.8354 27.14 35.2454 23.63 37.2054C17.18 40.5254 11.72 39.3554 5.66 33.4954C0.97 28.8054 0 26.0754 0 18.6554C0 3.81537 11.72 -4.19463 24.02 2.24537C27.15 4.00537 28.32 4.00537 28.9 2.24537C29.29 1.07537 30.85 0.0953746 32.42 0.0953746C34.57 0.0953746 35.15 4.39537 35.15 21.3854C35.15 33.1054 35.74 45.4054 36.32 48.7254C37.49 54.1954 37.1 54.7754 32.41 54.7754C27.53 54.7754 27.33 54.1854 27.33 45.0054ZM25 28.9954C28.13 25.8654 28.13 13.3654 25 10.2454C21.29 6.53537 12.11 7.31537 9.77 11.6154C5.08 20.7954 8.99 31.3454 17.19 31.3454C20.32 31.3454 23.64 30.3654 25 29.0054Z" sodipodi:nodetypes="cccccccccccccccccc"/>
  <path id="shape1" transform="translate(1458.98, 757.81)" fill="#000000" stroke-opacity="0" stroke="#000000" stroke-width="0" stroke-linecap="square" stroke-linejoin="bevel" d="M0 476.57L0 466.8L36.13 466.8L72.26 466.8L72.26 243.17L72.26 19.54L36.13 19.54L0 19.54L0 9.77L0 0L82.03 0L164.06 0L164.06 9.77L164.06 19.54L127.93 19.54L91.8 19.54L91.8 243.17L91.8 466.8L127.93 466.8L164.06 466.8L164.06 476.57L164.06 486.34L82.03 486.34L0 486.34Z" sodipodi:nodetypes="ccccccccccccccccccccccccc"/>
  <path id="shape2" transform="translate(390.63, 1173.82)" fill="#000000" stroke-opacity="0" stroke="#000000" stroke-width="0" stroke-linecap="square" stroke-linejoin="bevel" d="M5.66 49.03C1.17 44.54 0 41.61 0 35.16C0 28.71 1.17 25.78 5.66 21.29C11.71 15.24 20.7 13.67 25 17.97C26.76 19.73 27.34 17.97 27.34 10.16C27.34 1.37 27.93 0 31.25 0C34.96 0 35.16 1.37 35.16 23.24C35.16 36.13 35.75 47.85 36.33 49.61C37.89 53.52 31.45 56.25 29.3 52.74C28.13 50.98 26.76 50.98 23.83 52.54C17.19 56.06 11.72 55.08 5.67 49.02ZM25 44.54C29.1 40.44 27.93 27.94 23.05 24.62C17.39 20.71 16.41 20.71 11.72 25.4C7.42 29.7 6.64 37.12 9.77 43.17C12.11 47.47 21.29 48.25 25 44.54Z" sodipodi:nodetypes="ccccccccccccccccc"/>
  <path id="shape3" transform="translate(437.5, 1189.45)" fill="#000000" stroke-opacity="0" stroke="#000000" stroke-width="0" stroke-linecap="square" stroke-linejoin="bevel" d="M5.66 33.4C1.17 28.91 0 25.98 0 19.53C0 9.18 8.2 0 17.58 0C25.39 0 35.16 9.18 35.16 16.41C35.16 21.29 34.96 21.49 21.49 21.49C11.53 21.49 7.82 22.27 7.82 24.03C7.82 28.33 12.12 31.26 18.56 31.26C21.88 31.26 25.59 30.28 26.96 28.92C28.72 27.16 29.89 27.16 31.84 29.12C33.79 31.07 33.21 32.25 29.5 35.37C22.66 41.03 12.51 40.25 5.67 33.42ZM27.34 13.67C27.34 12.69 25.19 10.35 22.46 8.59C17.97 5.66 17.19 5.66 12.69 8.59C5.27 13.47 6.83 15.62 17.57 15.62C23.04 15.62 27.34 14.84 27.34 13.67Z" sodipodi:nodetypes="ccccccccccccccccc"/>
  <path id="shape4" transform="translate(480.728016707586, 1189.42784256067)" fill="#000000" stroke-opacity="0" stroke="#000000" stroke-width="0" stroke-linecap="square" stroke-linejoin="bevel" d="M6.38198 37.1322C0.911983 34.9822 -1.23802 31.4722 1.30198 28.9322C2.86198 27.3722 5.40198 27.7622 9.89198 29.9122C14.382 32.0622 17.122 32.4522 19.852 31.0822C25.322 28.1522 22.982 24.8322 13.212 22.1022C0.121983 18.1922 -3.58802 11.1622 3.64198 3.94215C11.062 -3.47785 31.572 0.422157 28.442 8.63215C27.272 11.7622 26.682 11.7622 21.412 8.63215C15.362 5.11215 9.50198 5.90215 9.50198 10.5822C9.50198 12.1422 12.232 13.9022 15.952 14.6822C25.522 16.8322 30.992 20.9322 30.992 26.4022C30.992 36.5622 18.492 42.0322 6.38198 37.1422Z" sodipodi:nodetypes="ccccccccccccc"/>
  <path id="shape5" transform="translate(519.58213482485, 1189.64796828684)" fill="#000000" stroke-opacity="0" stroke="#000000" stroke-width="0" stroke-linecap="square" stroke-linejoin="bevel" d="M9.90786 36.132C-1.42214 29.882 -3.37214 14.452 5.80786 5.27203C11.0779 0.00203171 12.8379 -0.587969 20.0679 0.392031C29.6379 1.76203 35.1079 7.23203 35.1079 15.622L35.1079 21.282L21.2379 21.282L7.36786 21.282L10.0979 25.772C13.4179 30.652 22.2079 32.412 26.3079 29.092C29.8279 26.162 35.2879 28.112 33.9279 31.632C31.5879 38.082 18.1079 40.612 9.90786 36.122ZM27.2879 13.672C27.2879 11.132 21.6279 5.66203 19.2779 5.66203C15.3679 5.66203 9.70786 9.76203 9.70786 12.502C9.70786 14.652 12.0479 15.432 18.4979 15.432C23.3779 15.432 27.2879 14.652 27.2879 13.672Z" sodipodi:nodetypes="ccccccccccccccccc"/>
  <path id="shape6" transform="translate(565.494096967832, 1189.56343993538)" fill="#000000" stroke-opacity="0" stroke="#000000" stroke-width="0" stroke-linecap="square" stroke-linejoin="bevel" d="M0.915903 38.5666C0.915903 38.1766 0.525903 29.7766 0.135903 19.8166C-0.254097 5.55656 0.135903 1.26656 2.0859 0.47656C3.6459 -0.11344 5.9959 0.47656 7.3559 1.45656C8.9159 2.82656 10.8759 2.82656 12.6259 1.84656C17.5059 -1.28344 24.1459 -0.30344 28.2559 3.79656C31.5759 7.11656 32.1659 10.2466 32.1659 23.3266C32.1659 37.5866 31.7759 38.9566 28.2559 38.9566C24.9359 38.9566 24.5459 37.3966 23.9559 23.9166C23.3659 9.07656 23.1759 8.68656 18.2959 8.09656C11.0659 7.31656 8.9159 11.0266 8.3359 25.2866C7.9459 35.4466 7.1659 37.9866 4.4259 38.5666C2.4759 38.9566 0.905903 38.9566 0.905903 38.5666Z" sodipodi:nodetypes="cccccccccccccc"/>
  <path id="shape7" transform="translate(605.66, 1191.41)" fill="#000000" stroke-opacity="0" stroke="#000000" stroke-width="0" stroke-linecap="square" stroke-linejoin="bevel" d="M12.5 34.76C12.11 33.39 8.98 24.99 5.86 16.21L0 0L4.49 0C8.2 0 9.57 1.76 12.5 11.72C14.45 18.17 16.6 23.44 17.38 23.44C18.16 23.44 20.31 18.17 22.26 11.72C24.99 2.93 26.75 0 29.49 0C34.18 0 33.98 0.59 26.95 20.31C22.07 33.4 19.92 37.11 16.99 37.11C15.04 37.11 12.89 35.94 12.5 34.77Z" sodipodi:nodetypes="cccccccccccc"/>
  <path id="shape8" transform="translate(646.338692022439, 1189.56886123605)" fill="#000000" stroke-opacity="0" stroke="#000000" stroke-width="0" stroke-linecap="square" stroke-linejoin="bevel" d="M5.8113 33.2811C-9.2287 18.0511 7.5713 -7.73886 26.1213 2.23114C32.9613 5.75114 35.1013 10.0411 35.3013 19.0311C35.3013 29.7711 27.2913 38.9511 17.7213 38.9511C13.4213 38.9511 9.7113 37.1911 5.8113 33.2911ZM25.1513 28.7911C26.5213 27.4211 27.4913 23.3211 27.4913 19.4111C27.4913 11.0111 24.7613 7.69114 17.7213 7.69114C10.6913 7.69114 7.9513 11.0111 7.9513 19.4111C7.9513 27.8111 10.6813 31.1311 17.7213 31.1311C20.4513 31.1311 23.7713 30.1511 25.1413 28.7911Z" sodipodi:nodetypes="ccccccccccccc"/>
  <path id="shape9" transform="translate(693.36, 1173.83)" fill="#000000" stroke-opacity="0" stroke="#000000" stroke-width="0" stroke-linecap="square" stroke-linejoin="bevel" d="M2.54 53.32C0.59 52.73 0 45.31 0 26.17C0 1.37 0.2 0 3.91 0C7.62 0 7.82 1.37 7.82 23.44C7.82 37.7 8.6 46.88 9.77 46.88C10.94 46.88 11.72 48.64 11.72 50.79C11.72 54.7 8.01 55.67 2.54 53.33Z" sodipodi:nodetypes="cccccccc"/>
  <path id="shape10" transform="translate(710.94, 1191.4)" fill="#000000" stroke-opacity="0" stroke="#000000" stroke-width="0" stroke-linecap="square" stroke-linejoin="bevel" d="M12.89 35.55C11.91 33.79 0 1.57 0 0.39C0 -2.27374e-13 1.95 -2.27374e-13 4.3 0.39C7.43 0.78 9.38 3.71 12.31 12.3C14.46 18.55 16.8 23.04 17.58 22.07C18.36 21.29 20.51 15.82 22.46 10.35C24.8 2.54 26.56 0 29.49 0C31.44 0 33.2 0.59 33.2 1.17C33.2 3.71 22.65 32.42 20.9 34.76C18.75 37.49 14.45 37.89 12.89 35.54Z" sodipodi:nodetypes="ccccccccccc"/>
  <path id="shape11" transform="translate(753.9, 1190.32532264112)" fill="#000000" stroke-opacity="0" stroke="#000000" stroke-width="0" stroke-linecap="square" stroke-linejoin="bevel" d="M0.01 20.0247C0.01 0.884677 0.6 -1.26532 5.09 0.494677C7.24 1.27468 7.82 5.96468 7.82 19.8347C7.82 36.8247 7.62 38.1947 3.91 38.1947C0.2 38.1947 0 36.8247 0 20.0347Z" sodipodi:nodetypes="cccccc"/>
  <path id="shape12" transform="translate(773.44, 1189.46)" fill="#000000" stroke-opacity="0" stroke="#000000" stroke-width="0" stroke-linecap="square" stroke-linejoin="bevel" d="M1.17 37.69C0.58 36.91 0 28.31 0 18.16C0 1.36 0.2 0 3.91 0C6.06 0 7.82 0.98 7.82 1.95C7.82 3.32 8.99 3.32 11.53 1.95C17 -0.78 22.47 -0.39 25.4 2.93C27.55 5.47 28.33 5.47 31.85 2.93C37.51 -0.98 42.2 -0.78 46.89 3.91C50.21 7.23 50.8 10.36 50.8 23.44C50.8 37.7 50.41 39.07 46.89 39.07C43.37 39.07 42.98 37.7 42.98 26.57C42.98 11.53 41.81 7.82 36.93 7.82C31.66 7.82 29.31 13.87 29.31 26.96C29.31 37.7 28.92 38.68 25.4 37.7C21.88 36.72 21.49 34.97 21.49 23.25C21.49 8.21 18.56 4.5 11.72 10.75C8.59 13.48 7.81 16.8 7.81 25.4C7.81 33.21 7.03 36.92 5.08 37.7C3.52 38.29 1.76 38.29 1.17 37.7Z" sodipodi:nodetypes="cccccccccccccccccccc"/>
  <path id="shape13" transform="translate(834.148552873102, 1189.77995734994)" fill="#000000" stroke-opacity="0" stroke="#000000" stroke-width="0" stroke-linecap="square" stroke-linejoin="bevel" d="M6.67145 34.24C2.76145 31.11 1.20145 27.4 0.421448 20.76C-0.558552 12.56 -0.168552 10.99 5.30145 5.53004C16.4314 -5.40996 34.7914 0.840042 34.9914 15.88C34.9914 21.15 34.9914 21.15 21.3214 21.15C7.06145 21.15 5.30145 22.32 11.1614 27.6C15.2614 31.51 23.4614 31.9 26.5914 28.77C27.9614 27.4 30.5014 27.21 32.4514 27.79C35.5814 29.16 35.3814 29.74 30.5014 34.04C23.4714 40.09 13.5114 40.29 6.67145 34.24ZM27.1814 13.34C27.1814 12.36 25.0314 10.02 22.4914 8.46004C18.7814 5.92004 16.8314 5.73004 13.7014 7.48004C6.28145 11.39 8.62145 15.29 18.3914 15.29C23.2714 15.29 27.1814 14.51 27.1814 13.34Z" sodipodi:nodetypes="ccccccccccccccc"/>
  <path id="shape14" transform="translate(878.9, 1189.42681226425)" fill="#000000" stroke-opacity="0" stroke="#000000" stroke-width="0" stroke-linecap="square" stroke-linejoin="bevel" d="M1.37 37.7232C0.59 37.1332 0 28.7432 0 19.1732C0 5.11318 0.59 1.59318 3.13 0.623187C4.89 0.0331877 7.04 0.623187 8.01 2.18318C9.18 4.33318 10.16 4.33318 12.11 2.38318C16.21 -1.71682 24.81 -0.346813 29.1 5.11318C32.42 9.41318 33.2 13.1232 33.2 24.6432C33.2 37.7332 32.81 39.0932 29.29 39.0932C25.77 39.0932 25.38 37.7232 25.38 25.8132C25.38 12.3332 23.43 7.84318 17.57 7.84318C11.12 7.84318 7.8 14.2932 7.8 26.9832C7.8 35.7732 7.02 39.0932 5.26 39.0932C3.7 39.0932 1.94 38.5032 1.35 37.7232Z" sodipodi:nodetypes="cccccccccccccc"/>
  <path id="shape15" transform="translate(919.816128380341, 1180.25892640196)" fill="#000000" stroke-opacity="0" stroke="#000000" stroke-width="0" stroke-linecap="square" stroke-linejoin="bevel" d="M11.0439 45.1311C8.89387 42.9811 7.91387 38.4911 7.91387 30.2911C7.91387 20.3311 7.32387 18.3811 4.00387 17.5911C-1.46613 16.2211 -1.26613 9.19107 4.20387 9.19107C7.33387 9.19107 8.11387 8.21107 7.33387 5.48107C6.74387 3.14107 7.53387 1.18107 9.28387 0.601073C13.5839 -1.15893 15.7339 0.991073 15.7339 6.46107C15.7339 10.1711 16.7139 11.1511 20.8139 11.1511C26.8639 11.1511 26.2839 15.6411 20.0339 16.6211C16.1239 17.2111 15.7339 18.3811 15.7339 28.9211C15.7339 39.8611 15.9339 40.4411 20.6139 40.4411C24.1339 40.4411 25.4939 41.4211 25.4939 44.3511C25.4939 47.2811 24.1239 48.2611 19.8339 48.2611C16.7039 48.2611 12.6039 46.8911 11.0439 45.1311Z" sodipodi:nodetypes="cccccccccccccc"/>
  <path id="shape16" transform="translate(953.13, 1189.71953740163)" fill="#000000" stroke-opacity="0" stroke="#000000" stroke-width="0" stroke-linecap="square" stroke-linejoin="bevel" d="M6.05 33.7205C0.78 29.4205 0 27.4705 0 19.2705C0 11.0705 0.78 9.11046 6.05 4.82046C20.31 -7.28954 39.25 5.02046 35.74 23.9605C34.37 30.8005 24.61 38.8005 17.58 38.8005C14.45 38.8005 9.38 36.6505 6.06 33.7205ZM25 28.6405C28.13 25.5105 28.13 13.0105 25 9.89046C23.63 8.52046 20.31 7.55046 17.58 7.55046C10.55 7.55046 7.81 10.8705 7.81 19.2705C7.81 27.6705 10.54 30.9905 17.58 30.9905C20.31 30.9905 23.63 30.0105 25 28.6505Z" sodipodi:nodetypes="cccccccccccccc"/>
  <path id="shape17" transform="translate(1021.77682356562, 1176.2860003589)" fill="#000000" stroke-opacity="0" stroke="#000000" stroke-width="0" stroke-linecap="square" stroke-linejoin="bevel" d="M8.10317 50.274C-1.07683 46.564 -2.83683 35.624 4.78317 28.204C9.47317 23.324 9.66317 22.734 7.12317 16.094C4.78317 9.064 4.78317 8.674 10.2532 3.984C14.7432 0.274 17.2832 -0.506 21.9732 0.274C29.2032 1.834 30.3732 2.814 31.9332 9.454C32.9132 13.164 31.9332 16.094 28.2232 20.394L23.3432 26.254L28.0332 30.744L32.7232 35.234L34.6732 29.964C35.8432 27.234 37.6032 24.884 38.5832 24.884C42.2932 24.884 43.0732 28.984 40.5332 35.044C38.3832 40.314 38.5832 41.294 42.2932 44.224C45.2232 46.374 46.0032 48.134 44.8332 50.084C43.2732 52.424 42.2932 52.424 37.9932 49.494C33.3032 46.564 32.3332 46.564 27.0532 49.294C20.8032 52.614 14.5532 52.814 8.10317 50.274ZM25.0932 42.464C27.4332 40.904 27.0432 39.734 22.1632 34.654C15.3232 27.624 14.3532 27.424 10.2532 33.674C7.71317 37.584 7.52317 39.144 9.47317 41.484C12.2032 44.804 20.6032 45.394 25.1032 42.464ZM23.9232 14.534C27.0532 9.654 20.7932 3.594 16.5032 7.304C12.7932 10.234 12.5932 13.554 15.7232 16.684C18.6532 19.614 21.1932 18.834 23.9232 14.534Z" sodipodi:nodetypes="cccccccccccccccccccccccccccc"/>
  <path id="shape18" transform="translate(1147.72824552766, 1190.57298797378)" fill="#000000" stroke-opacity="0" stroke="#000000" stroke-width="0" stroke-linecap="square" stroke-linejoin="bevel" d="M4.61175 34.427C1.09175 31.497 0.311754 28.957 0.121754 15.877C-0.268246 2.00701 0.121754 0.837012 3.64175 0.837012C7.16175 0.837012 7.55175 2.39701 8.13175 13.927C8.91175 28.967 9.30175 30.137 14.3818 30.137C21.2218 30.137 24.1518 24.667 24.1518 12.557C24.1518 2.98701 24.7418 1.22701 28.0618 0.257012C31.7718 -0.722988 31.9718 0.257012 31.9718 18.617C31.9718 36.387 31.5818 37.957 28.2618 37.957C26.1118 37.957 24.1618 36.787 23.5718 35.617C22.7918 33.667 22.2018 33.667 20.0518 35.617C16.3418 38.937 9.70175 38.547 4.62175 34.447Z" sodipodi:nodetypes="ccccccccccccc"/>
  <path id="shape19" transform="translate(1189.69320830656, 1189.49125194667)" fill="#000000" stroke-opacity="0" stroke="#000000" stroke-width="0" stroke-linecap="square" stroke-linejoin="bevel" d="M3.6668 35.1187C-1.4132 30.0387 -1.2132 26.7187 4.2568 20.4687C7.1868 16.9487 11.2868 14.9987 16.9568 14.2187C25.3568 13.0487 26.7268 10.6987 20.6668 6.98874C18.1268 5.42874 15.7868 5.61874 11.2868 8.15874C6.0168 11.2887 5.4268 11.2887 4.2568 8.35874C1.1268 0.348748 21.8368 -3.36126 29.0568 3.86874C32.3768 7.18874 32.9668 10.3187 32.9668 23.3987C32.9668 35.5087 32.3768 39.0287 30.2368 39.0287C28.6768 39.0287 27.1068 37.8587 26.5268 36.6887C25.9368 34.7387 24.7668 34.7387 21.4468 36.6887C15.3968 40.2087 8.1668 39.6187 3.6768 35.1287ZM20.8568 30.0387C23.1968 28.4787 25.1568 25.3487 25.1568 23.1987C25.1568 19.4887 22.4268 19.2887 12.0668 22.6087C6.9868 24.1687 9.5268 32.1787 15.3868 32.9587C15.9768 33.1587 18.5168 31.7887 20.8568 30.0287Z" sodipodi:nodetypes="ccccccccccccccccccc"/>
  <path id="shape20" transform="translate(1234.37, 1173.83)" fill="#000000" stroke-opacity="0" stroke="#000000" stroke-width="0" stroke-linecap="square" stroke-linejoin="bevel" d="M3.52 53.32C0.39 52.54 0 49.61 0 26.17C0 1.37 0.2 0 3.91 0C7.62 0 7.82 1.37 7.82 23.44C7.82 43.36 8.21 46.88 10.95 46.88C12.71 46.88 13.68 48.25 13.29 50.2C12.7 53.91 9.19 54.89 3.52 53.33Z" sodipodi:nodetypes="cccccccc"/>
  <path id="shape21" transform="translate(1257.81, 1191.41)" fill="#000000" stroke-opacity="0" stroke="#000000" stroke-width="0" stroke-linecap="square" stroke-linejoin="bevel" d="M0 18.55C0 1.36 0.2 0 3.91 0C7.62 0 7.82 1.37 7.82 18.55C7.82 35.74 7.62 37.1 3.91 37.1C0.2 37.1 0 35.73 0 18.55Z" sodipodi:nodetypes="ccccc"/>
  <path id="shape22" transform="translate(1276.98223403606, 1173.82)" fill="#000000" stroke-opacity="0" stroke="#000000" stroke-width="0" stroke-linecap="square" stroke-linejoin="bevel" d="M5.24776 49.81C-1.78224 42.97 -1.78224 27.35 5.44776 20.12C9.74776 15.82 11.4978 15.24 19.1178 16.41L27.7078 17.58L27.7078 8.79C27.7078 1.37 28.2978 0 31.6178 0C35.3278 0 35.5278 1.37 35.5278 27.34C35.5278 53.32 35.3278 54.68 31.6178 54.68C29.4678 54.68 27.7078 53.7 27.7078 52.73C27.7078 51.36 26.5378 51.36 23.9978 52.73C17.5478 56.05 10.1278 54.88 5.24776 49.8ZM26.1478 42C28.8778 35.75 26.5378 27.94 20.4878 24.03C16.5778 21.3 15.7978 21.49 11.1078 26.37C7.00776 30.28 6.22776 32.62 7.19776 36.72C9.14776 44.34 11.8878 46.88 18.1378 46.88C22.4378 46.88 24.3878 45.51 26.1478 42Z" sodipodi:nodetypes="cccccccccccccccccc"/>
  <path id="shape23" transform="translate(1322.38957765388, 1189.46)" fill="#000000" stroke-opacity="0" stroke="#000000" stroke-width="0" stroke-linecap="square" stroke-linejoin="bevel" d="M3.20043 35.54C-1.09957 30.85 -1.09957 22.84 3.40043 18.94C5.35043 17.18 10.6304 15.23 15.1204 14.45C23.7104 13.08 24.8904 12.11 20.9804 8.2C17.8504 5.07 13.5604 5.27 9.46043 8.98C5.75043 12.3 1.84043 11.32 1.84043 7.03C1.84043 3.71 10.2404 0 17.2704 0C27.4304 0 30.5504 4.88 31.7204 23.05C32.7004 37.5 32.3104 39.07 29.1804 39.07C27.2304 39.07 25.2704 37.9 24.6904 36.73C24.1004 34.78 22.9304 34.78 19.6104 36.73C13.7504 40.05 6.91043 39.66 3.20043 35.56ZM19.8004 29.88C23.7104 26.36 24.6804 19.33 20.9704 20.31C19.6004 20.9 16.0904 21.68 13.1604 22.26C7.30043 23.63 6.13043 26.95 10.0304 30.85C13.1604 33.98 15.5004 33.78 19.8004 29.87Z" sodipodi:nodetypes="ccccccccccccccccccc"/>
  <path id="shape24" transform="translate(1365.24, 1173.82)" fill="#000000" stroke-opacity="0" stroke="#000000" stroke-width="0" stroke-linecap="square" stroke-linejoin="bevel" d="M4.88 49.81C0.97 46.1 0 43.17 0 35.16C0 27.15 0.98 24.22 4.88 20.51C9.76 15.43 17.18 14.26 23.63 17.58C27.15 19.53 27.34 18.95 27.34 9.77C27.34 1.37 27.93 0 31.25 0C34.96 0 35.16 1.37 35.16 27.34C35.16 52.93 34.96 54.68 31.45 54.68C29.3 54.68 27.35 53.51 26.76 52.34C25.98 50.39 25.39 50.39 23.24 52.34C18.94 56.25 9.96 55.07 4.88 49.8ZM24.61 42C28.91 35.36 26.76 25.79 20.31 24.23C13.86 22.67 9.96 24.43 7.81 30.28C2.93 43.17 17.19 53.33 24.61 42Z" sodipodi:nodetypes="cccccccccccccccc"/>
  <path id="shape25" transform="translate(1410.16, 1189.63025853112)" fill="#000000" stroke-opacity="0" stroke="#000000" stroke-width="0" stroke-linecap="square" stroke-linejoin="bevel" d="M10.35 36.9297C5.47 34.9797 0 25.5997 0 19.3497C0 13.6897 5.27 4.30975 9.57 1.76975C18.55 -2.92025 31.64 2.15975 34.96 11.7297C36.13 15.0497 36.52 18.5697 35.94 19.5397C35.35 20.5197 28.91 21.2997 21.29 21.2997C7.23 21.2997 5.47 22.4697 11.33 27.7497C15.43 31.6597 23.63 32.0497 26.76 28.9197C29.69 25.9897 35.35 28.1397 33.99 31.6497C31.84 37.6997 19.15 40.4397 10.36 36.9197ZM27.34 14.0797C27.14 5.48975 9.76 4.11975 9.76 12.5197C9.76 14.6697 12.1 15.4497 18.55 15.4497C23.43 15.4497 27.34 14.8597 27.34 14.0797Z" sodipodi:nodetypes="ccccccccccccccc"/>
  <path id="shape26" transform="translate(752.357049825886, 1173.83)" fill="#000000" stroke-opacity="0" stroke="#000000" stroke-width="0" stroke-linecap="square" stroke-linejoin="bevel" d="M0.18295 6.64C-0.79705 3.91 2.33295 0 5.45295 0C8.58295 0 11.313 3.71 10.143 6.45C8.58295 10.75 1.74295 10.75 0.18295 6.65Z" sodipodi:nodetypes="ccccc"/>
  <path id="shape27" transform="translate(1255.70925831029, 1175.78)" fill="#000000" stroke-opacity="0" stroke="#000000" stroke-width="0" stroke-linecap="square" stroke-linejoin="bevel" d="M1.52074 6.45C-1.60926 3.52 0.350742 0 5.04074 0C8.56074 0 9.92074 0.98 9.92074 3.91C9.92074 7.82 4.45074 9.38 1.52074 6.45Z" sodipodi:nodetypes="cccc"/>
  <path id="shape28" transform="translate(1182.64806407592, 968.75)" fill="#000000" stroke-opacity="0" stroke="#000000" stroke-width="0" stroke-linecap="square" stroke-linejoin="bevel" d="M20.4819 161.72C-0.418064 147.85 -6.85806 97.07 8.37194 66.41C17.7519 47.27 36.3019 40.82 49.5819 51.96L55.6319 57.04L55.6319 28.52L55.6319 0L64.4219 0L73.2119 0L73.2119 82.03L73.2119 164.06L65.4019 164.06C58.9519 164.06 57.5919 163.47 57.5919 160.15C57.5919 155.07 56.0319 155.27 50.3619 160.35C43.5219 166.99 29.0719 167.58 20.4819 161.72ZM43.7219 147.27C52.3119 141.22 55.6319 130.08 55.6319 106.84C55.6319 89.65 54.8519 83.99 51.5319 76.37C46.8419 65.24 40.4019 60.94 32.7819 63.67C15.2019 69.92 11.1019 127.93 27.3119 145.31C32.7819 151.17 37.2719 151.76 43.7219 147.26Z" sodipodi:nodetypes="ccccccccccccccccccccc"/>
  <path id="shape29" transform="translate(1279.3, 1015.13327696553)" fill="#000000" stroke-opacity="0" stroke="#000000" stroke-width="0" stroke-linecap="square" stroke-linejoin="bevel" d="M22.07 115.917C8.59 107.327 0 85.2567 0 58.1067C0 25.4867 13.09 1.85672 32.23 0.296724C45.32 -0.683276 49.22 0.496724 56.64 7.91672C65.62 16.8967 70.31 30.9667 70.31 49.7167L70.31 62.9967L43.75 62.9967L16.99 62.9967L18.36 73.3467C21.49 96.1967 32.81 108.507 43.95 101.277C49.42 97.5667 52.74 90.9267 52.74 83.3067C52.74 78.6167 53.33 78.4267 62.12 79.0067L71.3 79.5967L70.71 86.4367C69.73 97.9567 66.61 104.987 59.58 111.827C53.53 117.687 51.18 118.467 40.44 119.247C30.87 119.637 26.96 119.047 22.08 115.927ZM52.15 38.5767C50.39 26.4667 45.9 18.4567 39.85 16.8967C29.5 14.3567 21.69 22.7567 18.76 40.1367L17.39 47.3667L35.36 47.3667L53.33 47.3667L52.16 38.5767Z" sodipodi:nodetypes="cccccccccccccccccccccccccc"/>
  <path id="shape30" transform="translate(417.156126399864, 826.152676917412)" fill="#000000" stroke-opacity="0" stroke="#000000" stroke-width="0" stroke-linecap="square" stroke-linejoin="bevel" d="M57.8439 304.507C37.5339 300.597 10.1839 281.457 1.59388 265.057C-1.13612 259.787 -0.946127 259.397 6.86388 250.017C11.5539 244.547 15.8439 240.447 16.6339 240.637C17.4139 241.027 21.7139 245.907 26.2039 251.577C45.7339 276.377 74.6439 283.807 96.9039 269.737C109.014 261.927 114.674 250.007 114.874 231.647C115.074 203.327 106.084 189.067 73.2739 165.627C26.9839 132.427 14.0939 115.827 8.43388 82.0373C6.67388 70.5173 8.82388 50.5873 13.3139 40.2373C28.9439 3.71733 74.4439 -10.7427 112.924 8.59733C126.794 15.6273 139.484 25.3973 139.484 29.2973C139.484 31.4473 126.004 50.7773 124.444 50.7773C123.854 50.7773 118.974 46.8673 113.704 41.9873C97.1039 27.1473 77.3739 23.6273 59.6039 32.6073C50.6239 36.9073 48.4739 39.2473 44.3739 48.2373C40.2739 57.2173 39.4939 61.1273 40.2739 73.8273C41.4439 100.777 48.4739 110.157 90.6639 141.987C121.524 165.037 133.824 177.537 141.054 192.967C145.934 203.127 146.324 206.057 146.324 228.517C146.324 251.367 145.934 253.717 140.664 265.037C126.604 295.697 93.3939 311.517 57.8539 304.487Z" sodipodi:nodetypes="ccccccccccccccccccccccc"/>
  <path id="shape31" transform="translate(1373.05, 1017.38379010612)" fill="#000000" stroke-opacity="0" stroke="#000000" stroke-width="0" stroke-linecap="square" stroke-linejoin="bevel" d="M27.54 109.176C23.83 97.2662 0 5.85621 0 2.92621C0 -1.37379 16.99 -0.78379 18.36 3.70621C18.75 5.46621 23.44 24.6062 28.32 46.0862C33.4 67.5662 37.89 85.5362 38.28 85.9262C38.48 86.3162 39.26 84.5562 39.84 82.0162C40.43 79.4762 44.92 60.5362 49.8 40.0262C54.68 19.5162 58.59 2.13621 58.59 1.54621C58.59 0.76621 62.5 0.17621 67.38 0.17621C74.41 0.17621 76.17 0.95621 76.17 3.49621C76.17 6.03621 56.64 82.2062 49.22 108.576C47.66 113.846 46.68 114.436 38.67 115.026C30.08 115.616 29.49 115.416 27.54 109.166Z" sodipodi:nodetypes="cccccccccccccc"/>
  <path id="shape32" transform="translate(758.549999912122, 830.06)" fill="#000000" stroke-opacity="0" stroke="#000000" stroke-width="0" stroke-linecap="square" stroke-linejoin="bevel" d="M38.13 298.26C26.8 293.96 17.43 287.52 9.03 277.95C-2.3 264.86 -2.69 261.54 6.3 251.19C10.6 246.5 14.5 242.4 15.28 242.4C15.87 242.2 18.8 246.31 21.73 251.19C29.15 263.69 41.85 271.5 55.32 271.5C64.11 271.5 66.65 270.52 72.7 265.25C86.76 252.95 86.18 258.8 86.76 122.67L87.35 0.01L102.39 0.01L117.62 0.01L137.54 101.96C148.48 158.21 158.83 212.31 160.59 222.27C162.35 232.23 164.11 240.04 164.5 239.65C165.48 238.67 198.48 83.79 208.64 32.81L214.89 0L231.1 0C244.19 0 247.31 0.59 247.31 2.93C247.31 4.49 254.73 39.84 263.91 81.45C300.24 246.88 311.18 297.86 310.39 299.42C309.61 300.59 280.51 301.57 280.51 300.4C280.51 298.64 262.74 209.38 261.76 206.65C260.78 203.52 257.66 203.13 231.68 203.13C210.39 203.13 202.58 203.72 201.8 205.67C201.41 206.84 197.31 226.96 192.82 250.01C188.33 273.06 184.23 293.96 183.64 296.49C182.86 300.59 181.69 300.79 167.43 300.79L152 300.79L149.07 287.7C147.51 280.28 139.69 244.54 131.88 208.01L117.43 141.6L116.45 197.26C115.47 248.63 115.08 253.71 110.98 263.67C101.8 286.91 84.81 299.02 59.81 300.19C50.63 300.58 42.43 299.8 38.13 298.24ZM255.12 171.11C255.12 170.72 253.36 162.13 251.41 151.97C249.26 141.81 244.77 118.57 241.45 100.41C238.13 82.25 234.81 65.64 234.22 63.5C232.66 59.01 233.83 54.91 222.11 110.38C217.42 131.86 212.54 154.52 211.17 160.77L208.63 171.9L231.87 171.9C244.57 171.9 255.11 171.51 255.11 171.12Z" sodipodi:nodetypes="cccccccccccccccccccccccccccccccccccccccccccccc"/>
  <path id="shape33" transform="translate(1091.8, 1103.52)" fill="#000000" stroke-opacity="0" stroke="#000000" stroke-width="0" stroke-linecap="square" stroke-linejoin="bevel" d="M0 13.67L0 0L13.67 0L27.34 0L27.34 13.67L27.34 27.34L13.67 27.34L0 27.34Z" sodipodi:nodetypes="ccccccccc"/>
  <path id="shape34" transform="translate(615.23, 830.08)" fill="#000000" stroke-opacity="0" stroke="#000000" stroke-width="0" stroke-linecap="square" stroke-linejoin="bevel" d="M0 148.44L0 0L61.13 0.39L122.07 0.98L122.66 15.24L123.25 29.3L76.18 29.3L29.3 29.3L29.3 80.08L29.3 130.86L70.32 130.86L111.34 130.86L111.34 144.53L111.34 158.2L70.32 158.2L29.3 158.2L29.3 212.89L29.3 267.58L77.74 267.97L125.98 268.56L126.57 278.13C126.96 283.4 126.77 289.85 125.98 292.39L125 296.88L62.5 296.88L0 296.88Z" sodipodi:nodetypes="cccccccccccccccccccccccccc"/>
 </g>
</svg>
